<?xml version="1.0" encoding="utf-8"?>
<!-- Svg Vector Icons : http://www.onlinewebfonts.com/icon -->
<!DOCTYPE svg PUBLIC "-//W3C//DTD SVG 1.1//EN" "http://www.w3.org/Graphics/SVG/1.1/DTD/svg11.dtd">
<svg version="1.1" xmlns="http://www.w3.org/2000/svg" xmlns:xlink="http://www.w3.org/1999/xlink" x="0px" y="0px" viewBox="0 0 1000 1000" enable-background="new 0 0 1000 1000" xml:space="preserve" fill="#606b76">
<metadata> Svg Vector Icons : http://www.onlinewebfonts.com/icon </metadata>
<g><g transform="translate(0.000000,512.000000) scale(0.100000,-0.100000)"><path d="M8602.9,4984.1c-57.5-53.7-69-118.8-34.5-187.8c30.7-59.4,65.2-80.5,134.1-80.5c23,0,67.1-24.9,95.8-55.6l51.7-53.7l-149.5-124.6c-82.4-67.1-161-130.3-174.4-138c-42.2-24.9-138,80.5-138,149.5c-1.9,67.1-28.7,109.2-92,143.7c-90.1,47.9-214.6-32.6-214.6-136.1c0-67.1,76.7-149.5,138-149.5c23,0,70.9-26.8,105.4-61.3l61.3-59.4L8210,4100.7l-176.3-128.4l-51.8,49.8c-32.6,28.7-53.7,69-53.7,99.6c0,149.5-191.6,216.5-279.8,99.6c-67.1-86.2,0-233.8,105.4-233.8c46,0,136.1-65.1,136.1-99.6c0-9.6-49.8-44.1-272.1-189.7c-9.6-5.7-19.2-101.6-21.1-210.8c-3.8-178.2-9.6-210.8-59.4-304.7c-30.7-57.5-107.3-157.1-172.5-220.4c-251-247.2-1991-1916.3-2004.4-1922c-7.7-3.8-86.2,46-174.4,111.1c-415.8,298.9-833.6,417.7-1182.3,335.4c-270.2-63.2-438.8-195.5-718.6-559.6C2955.6,496.2,2787,318,2574.3,183.9C2411.4,80.4,2298.4,34.4,1804-132.3c-243.4-82.4-498.2-178.2-565.3-210.8c-318.1-159.1-676.4-454.2-852.7-701.4c-103.5-143.7-207-360.3-251-525c-49.8-184-46-553.8,9.6-760.8c164.8-613.2,659.2-1278.2,1393.1-1868.4c318.1-252.9,682.2-448.4,1009.9-536.6c207-55.6,574.9-59.4,762.7-9.6c287.4,76.7,548,237.6,787.6,484.8c300.8,314.3,450.3,586.4,647.7,1184.3c272.1,824,356.4,940.9,1061.6,1481.3c364.1,279.8,496.3,448.4,559.6,718.6c82.4,348.8-38.3,768.4-335.3,1182.3c-65.1,88.2-115,166.7-111.1,174.4c5.7,15.3,1642.2,1722.7,1902.9,1985.3c72.8,74.7,182.1,161,239.5,191.6c93.9,49.8,126.5,55.6,304.7,59.4c109.2,1.9,205,11.5,210.8,21.1c147.5,224.2,182.1,272.1,193.5,272.1c19.2,0,86.2-76.7,88.1-101.6c0-13.4,3.8-38.3,3.8-55.6c5.7-53.7,82.4-111.1,147.6-111.1c80.5,0,149.5,72.8,147.6,157.1c-1.9,76.7-76.6,149.5-155.2,149.5c-32.6,0-70.9,19.2-101.5,53.7l-51.8,51.7l130.3,176.3l128.4,178.2l61.3-63.2c38.3-38.3,61.3-82.4,61.3-113.1c0-61.3,80.5-130.3,151.4-130.3c103.5,0,182.1,126.5,134.1,214.6c-34.5,63.2-76.6,90.1-143.7,92c-69,0-174.4,95.8-149.5,138c7.7,13.4,70.9,92,138,174.4l124.6,149.5l53.7-51.7c30.7-28.7,55.6-72.8,55.6-95.8c0-69,21.1-103.5,80.5-134.1c155.2-80.5,300.8,111.2,178.2,231.9c-26.8,28.8-69,47.9-101.6,47.9c-34.5,0-72.8,19.2-109.2,57.5l-55.6,57.5l99.6,101.6c120.7,122.6,124.6,155.2,30.7,314.3c-86.2,145.6-191.6,251-341.1,339.2c-155.2,93.9-189.7,90.1-312.3-30.7l-101.6-99.6l-57.5,55.6c-38.3,36.4-57.5,74.7-57.5,109.2C8848.2,4995.6,8691,5066.5,8602.9,4984.1z M4185.9-421.7c452.2-216.5,448.4-860.4-9.6-1084.6c-220.4-107.3-505.9-57.5-684.1,118.8c-115,116.9-172.5,258.7-172.5,431.2c1.9,183.9,55.6,310.4,184,431.2C3703-339.2,3938.7-302.9,4185.9-421.7z M2928.8-1935.5c197.4-201.2,366-383.3,371.7-404.3c32.6-97.7-69-203.1-168.6-178.2c-24.9,7.6-207,174.4-406.3,373.7c-339.2,339.2-362.2,367.9-362.2,433.1c0,84.3,59.4,141.8,145.6,141.8C2559-1569.5,2618.4-1621.2,2928.8-1935.5z"/></g></g>
</svg>
